<svg xmlns="http://www.w3.org/2000/svg" viewBox="0 0 34 24">
  <path d="M6.7 13.78q-.04.75-.23 1.35-.19.6-.54 1.01-.35.42-.87.64-.5.22-1.19.22-.66 0-1.19-.29-.53-.28-.9-.82-.38-.53-.58-1.29-.2-.76-.2-1.7v-1.8q0-.93.2-1.69.2-.76.58-1.3.39-.53.94-.82Q3.28 7 3.97 7q.64 0 1.13.21.5.22.84.63.34.42.53 1.02.2.61.23 1.4H5.58q-.03-.57-.14-.99-.1-.41-.3-.68-.18-.27-.47-.4-.3-.13-.7-.13-.48 0-.83.22-.35.21-.57.6-.23.4-.35.96-.1.56-.1 1.25v1.81q0 .64.08 1.2.1.55.3.97.22.41.55.65.34.24.82.24.45 0 .76-.12.31-.13.5-.4.2-.26.3-.67.11-.41.15-1zm2.6 2.04h3.43v1.05H8.18V7.13H9.3zm8.94-3.45h-3.1v3.45h3.6v1.05h-4.7V7.13h4.65V8.2h-3.55v3.13h3.1zm4.56.56h-1.54v3.94h-1.1V7.13h2.45q1.29 0 1.95.75.66.74.66 2.18 0 .9-.36 1.58-.35.67-1.01 1l1.7 4.15v.08h-1.19zm-1.54-1.05h1.34q.38 0 .66-.14.28-.15.47-.39.2-.25.29-.57.1-.34.1-.72 0-.42-.1-.76-.07-.35-.26-.6-.18-.24-.47-.38-.28-.13-.68-.13h-1.35zm9.54 2.45h-2.97l-.68 2.54h-1.13l2.82-9.74h.95l2.83 9.74h-1.14zm-2.68-1.06h2.39l-1.2-4.43z"/>
</svg>